<svg xmlns="http://www.w3.org/2000/svg" width="20" height="20" class="" viewBox="0 0 20 20" fill="none"><path d="M6.68678 2.05537C5.83558 2.09553 5.25414 2.23185 4.74614 2.43089C4.22022 2.63585 3.77446 2.91073 3.33094 3.35601C2.88694 3.80161 2.6143 4.24817 2.41078 4.77457C2.21382 5.28385 2.08022 5.86561 2.04278 6.71729C2.00534 7.57073 1.99686 7.84289 2.00102 10.0154C2.00518 12.1875 2.01478 12.4602 2.05542 13.3138C2.09606 14.1648 2.2319 14.7459 2.43094 15.2543C2.63622 15.7802 2.91078 16.2258 3.35622 16.6695C3.8015 17.1131 4.24838 17.3856 4.7751 17.5893C5.2839 17.7861 5.86582 17.92 6.71734 17.9573C7.57062 17.9949 7.8431 18.0032 10.0149 17.9991C12.1877 17.9949 12.4602 17.9853 13.3135 17.9448C14.1647 17.9042 14.7455 17.7679 15.2541 17.5693C15.7801 17.3635 16.2258 17.0895 16.6693 16.644C17.1129 16.1987 17.3855 15.7519 17.589 15.2251C17.786 14.7163 17.9201 14.1344 17.957 13.2834C17.9943 12.4296 18.0031 12.1568 17.9989 9.98481C17.9948 7.81249 17.985 7.54033 17.9445 6.68721C17.9041 5.83553 17.7677 5.25457 17.569 4.74609C17.3634 4.22017 17.0892 3.77489 16.6439 3.33089C16.1986 2.88737 15.7517 2.61425 15.225 2.41121C14.7159 2.21425 14.1343 2.08001 13.2828 2.04321C12.4297 2.00513 12.1573 1.99681 9.9847 2.00097C7.81254 2.00513 7.54022 2.01441 6.68694 2.05537M6.78022 16.5175C6.00022 16.4835 5.5767 16.3539 5.29446 16.2453C4.9207 16.1007 4.65398 15.9272 4.37318 15.6487C4.09302 15.369 3.9191 15.1031 3.77318 14.7301C3.66358 14.4479 3.53158 14.0248 3.4951 13.2448C3.45542 12.4016 3.4463 12.1487 3.44246 10.0125C3.4383 7.87697 3.44614 7.62385 3.48294 6.78001C3.51638 6.00065 3.64678 5.57649 3.7551 5.29457C3.89974 4.92033 4.07254 4.65409 4.35174 4.37329C4.63142 4.09265 4.89734 3.91921 5.27062 3.77329C5.5527 3.66305 5.97558 3.53217 6.75526 3.49521C7.59894 3.45521 7.85174 3.44673 9.98726 3.44257C12.1233 3.43841 12.3764 3.44593 13.2202 3.48305C13.9996 3.51697 14.4237 3.64609 14.7055 3.75521C15.0796 3.89985 15.3463 4.07217 15.6268 4.35185C15.9073 4.63153 16.0812 4.89697 16.2271 5.27105C16.3372 5.55233 16.4682 5.97585 16.505 6.75521C16.5452 7.59889 16.5543 7.85185 16.5581 9.98753C16.5623 12.1237 16.5545 12.3767 16.5175 13.22C16.4836 14 16.3541 14.4237 16.2453 14.7063C16.1007 15.0797 15.9277 15.3464 15.6484 15.6272C15.369 15.9069 15.1031 16.0813 14.7295 16.2272C14.4481 16.3371 14.0245 16.4683 13.2453 16.5053C12.4017 16.545 12.1489 16.5541 10.0125 16.5579C7.87702 16.5621 7.62422 16.5541 6.78038 16.5175M13.3018 5.72369C13.3028 6.25345 13.7337 6.68241 14.2634 6.68145C14.7935 6.68049 15.2225 6.24993 15.2217 5.72001C15.2205 5.19025 14.7898 4.76097 14.2597 4.76193C13.7297 4.76289 13.3007 5.19377 13.3017 5.72353M5.89238 10.0079C5.8967 12.2767 7.73942 14.1119 10.0077 14.1074C12.2762 14.1029 14.1124 12.2608 14.1081 9.99201C14.1036 7.72401 12.2607 5.88785 9.9919 5.89217C7.72358 5.89665 5.8879 7.73953 5.89238 10.0079ZM7.33334 10.005C7.33078 8.53249 8.52262 7.33617 9.99478 7.33361C11.4673 7.33073 12.6637 8.52209 12.6666 9.99489C12.6695 11.4677 11.4777 12.6637 10.0049 12.6666C8.53254 12.6695 7.33606 11.4779 7.33334 10.0051" fill="#36363D"></path></svg>